<svg width="57" height="57" viewBox="0 0 57 57" fill="none" xmlns="http://www.w3.org/2000/svg">
<path d="M50.8929 0H6.10714C2.73549 0 0 2.73549 0 6.10714V50.8929C0 54.2645 2.73549 57 6.10714 57H50.8929C54.2645 57 57 54.2645 57 50.8929V6.10714C57 2.73549 54.2645 0 50.8929 0ZM35.2815 48.819C34.2127 49.0098 33.8183 48.3482 33.8183 47.8011C33.8183 47.1141 33.8438 43.6025 33.8438 40.7652C33.8438 38.7804 33.1821 37.5208 32.406 36.8592C37.1136 36.3375 42.0757 35.6886 42.0757 27.5585C42.0757 25.2429 41.2487 24.085 39.9 22.5964C40.1163 22.0493 40.8415 19.7973 39.6837 16.871C37.9152 16.3239 33.8692 19.1484 33.8692 19.1484C32.1897 18.6777 30.3703 18.4359 28.5763 18.4359C26.7824 18.4359 24.9629 18.6777 23.2835 19.1484C23.2835 19.1484 19.2375 16.3239 17.469 16.871C16.3112 19.7846 17.0237 22.0366 17.2527 22.5964C15.904 24.085 15.2679 25.2429 15.2679 27.5585C15.2679 35.6504 20.0136 36.3375 24.7212 36.8592C24.1105 37.4063 23.5634 38.3478 23.3725 39.6964C22.1638 40.2435 19.0721 41.185 17.2272 37.9279C16.0694 35.9176 13.9828 35.7522 13.9828 35.7522C11.9217 35.7268 13.8429 37.05 13.8429 37.05C15.217 37.6862 16.1839 40.129 16.1839 40.129C17.4181 43.9078 23.3217 42.6355 23.3217 42.6355C23.3217 44.404 23.3471 47.2795 23.3471 47.8011C23.3471 48.3482 22.9654 49.0098 21.8839 48.819C13.4866 46.0071 7.60848 38.017 7.60848 28.6781C7.60848 16.9982 16.5402 8.13013 28.2201 8.13013C39.9 8.13013 49.3661 16.9982 49.3661 28.6781C49.3788 38.017 43.6788 46.0199 35.2815 48.819ZM22.8 41.0451C22.5583 41.096 22.3292 40.9942 22.3038 40.8288C22.2783 40.6379 22.4438 40.4725 22.6855 40.4217C22.9272 40.3962 23.1563 40.498 23.1817 40.6634C23.2199 40.8288 23.0545 40.9942 22.8 41.0451ZM21.5913 40.9306C21.5913 41.096 21.4004 41.2359 21.146 41.2359C20.8661 41.2614 20.6752 41.1214 20.6752 40.9306C20.6752 40.7652 20.8661 40.6252 21.1205 40.6252C21.3623 40.5998 21.5913 40.7397 21.5913 40.9306ZM19.8482 40.7906C19.7973 40.956 19.5429 41.0324 19.3266 40.956C19.0848 40.9051 18.9194 40.7143 18.9703 40.5489C19.0212 40.3835 19.2757 40.3071 19.492 40.358C19.7464 40.4344 19.9118 40.6252 19.8482 40.7906ZM18.2833 40.1036C18.1688 40.2435 17.927 40.2181 17.7362 40.0272C17.5453 39.8618 17.4944 39.6201 17.6217 39.5056C17.7362 39.3656 17.9779 39.3911 18.1688 39.5819C18.3342 39.7473 18.3978 40.0018 18.2833 40.1036ZM17.1254 38.9458C17.0109 39.0221 16.7946 38.9458 16.6547 38.7549C16.5147 38.5641 16.5147 38.3478 16.6547 38.2587C16.7946 38.1442 17.0109 38.2333 17.1254 38.4241C17.2654 38.615 17.2654 38.844 17.1254 38.9458V38.9458ZM16.2984 37.7116C16.1839 37.8261 15.9931 37.7625 15.8531 37.6353C15.7132 37.4699 15.6877 37.279 15.8022 37.19C15.9167 37.0754 16.1076 37.1391 16.2475 37.2663C16.3875 37.4317 16.4129 37.6225 16.2984 37.7116ZM15.446 36.7701C15.3951 36.8846 15.2297 36.91 15.0897 36.821C14.9243 36.7446 14.848 36.6047 14.8989 36.4902C14.9498 36.4138 15.0897 36.3757 15.2551 36.4393C15.4205 36.5283 15.4969 36.6683 15.446 36.7701Z" fill="white"/>
</svg>
